<svg width="25" height="25" viewBox="0 0 25 25" fill="none" xmlns="http://www.w3.org/2000/svg">
<path d="M0 9.76562H25V15.2344H0V9.76562Z" fill="#E6E7E8"/>
<path d="M21.0938 3.90625H3.90625C1.31758 3.90625 0 5.83008 0 8.20312V9.76562H25V8.20312C25 5.83008 23.6824 3.90625 21.0938 3.90625ZM0 16.7969C0 19.1699 1.31758 21.0938 3.90625 21.0938H21.0938C23.6824 21.0938 25 19.1699 25 16.7969V15.2344H0V16.7969Z" fill="#74ACDF"/>
<path fill-rule="evenodd" clip-rule="evenodd" d="M12.7649 10.8976C12.886 10.7469 12.8985 10.5965 12.9016 10.4375C12.9051 10.3027 12.925 10.1672 12.9492 10.032C12.9582 9.98162 12.9938 9.93162 13.0289 9.89333C13.0429 9.88143 13.0593 9.87268 13.0769 9.86769C13.0946 9.8627 13.1131 9.86159 13.1313 9.86443C13.1504 9.86951 13.1684 9.92185 13.1668 9.95271C13.1641 10.0062 13.1391 10.0594 13.1356 10.1129C13.1278 10.2258 13.1278 10.3367 13.1274 10.4484C13.1258 10.5613 13.1266 10.673 13.1266 10.7988C13.2071 10.6316 13.2836 10.4707 13.3625 10.3109C13.4032 10.222 13.4493 10.1358 13.5008 10.0527C13.5207 10.025 13.5719 10.0172 13.6078 10.0008C13.6215 10.0379 13.6563 10.0789 13.6485 10.1101C13.602 10.2754 13.5457 10.4383 13.4906 10.6011C13.4414 10.7504 13.3887 10.8969 13.327 11.0703C13.4848 10.982 13.5539 10.8629 13.6156 10.732C13.6832 10.5883 13.7621 10.448 13.8516 10.3172C13.8942 10.2558 13.9735 10.1797 14.0563 10.25C14.0778 10.2679 14.0383 10.3867 14.0004 10.4379C13.9121 10.5574 13.8586 10.684 13.8199 10.8281C13.7871 10.9511 13.7016 11.0609 13.6449 11.1652C13.6656 11.1488 13.702 11.1183 13.7352 11.0871C13.8957 10.9433 14.0551 10.7976 14.2164 10.6543C14.2606 10.6148 14.3082 10.5781 14.3602 10.5531C14.3848 10.541 14.4328 10.5508 14.4547 10.5679C14.4723 10.5801 14.4746 10.6312 14.4629 10.6527C14.4303 10.7106 14.3917 10.765 14.3477 10.8148C14.1621 11.023 13.975 11.2289 13.7707 11.4535C13.9664 11.4265 14.0899 11.3308 14.2082 11.214C14.3012 11.1222 14.4094 11.0429 14.5145 10.9629C14.5456 10.939 14.5835 10.9254 14.6227 10.9242C14.6754 10.9258 14.7274 10.948 14.7781 10.9629C14.75 11.0047 14.7328 11.064 14.6934 11.0871C14.5396 11.1738 14.4078 11.2948 14.3082 11.4406C14.2492 11.5281 14.1387 11.5781 14.0344 11.659C14.2606 11.5781 14.4696 11.5035 14.6793 11.4316C14.7606 11.4039 14.8446 11.3808 14.9285 11.3668C14.9539 11.3625 15.0024 11.3875 15.011 11.4101C15.0192 11.4344 15.0035 11.484 14.9824 11.5008C14.927 11.5433 14.8653 11.5789 14.8012 11.6082C14.5586 11.7261 14.3153 11.8402 14.0535 11.9644C14.2649 12.0277 14.4305 11.9523 14.6028 11.8883C14.7356 11.8394 14.8813 11.8215 15.0231 11.8082C15.0649 11.8043 15.1145 11.8617 15.159 11.8914C15.1188 11.9234 15.0801 11.9804 15.0352 11.9844C14.8508 12.0043 14.6938 12.0781 14.5332 12.1668C14.4274 12.2254 14.2899 12.2277 14.1656 12.2566C14.4586 12.273 14.7516 12.2894 15.0449 12.3074C15.0485 12.3074 15.0528 12.3066 15.0567 12.3086L15.216 12.3996C15.1653 12.4308 15.1149 12.4871 15.061 12.4906C14.7957 12.5152 14.5278 12.5261 14.2621 12.5426C14.2215 12.5441 14.1813 12.5476 14.1149 12.5531C14.3047 12.6929 14.4922 12.6816 14.6856 12.6875C14.8242 12.6898 14.9653 12.7383 15.1004 12.782C15.1352 12.7926 15.1531 12.8574 15.1778 12.8972C15.1344 12.9129 15.0903 12.9398 15.0477 12.9398C14.9903 12.9398 14.9324 12.9156 14.8742 12.9058C14.8246 12.8972 14.7719 12.8812 14.7246 12.8902C14.5219 12.9273 14.3223 12.9562 14.1281 12.8418C14.1274 12.8515 14.1246 12.8617 14.1223 12.8715C14.3422 12.975 14.5606 13.0785 14.7789 13.1832C14.8422 13.2136 14.9078 13.2449 14.9633 13.2871C14.991 13.3086 14.9996 13.357 15.016 13.3937C14.9797 13.4086 14.9422 13.4406 14.909 13.4363C14.8328 13.4258 14.7571 13.3992 14.6832 13.3738C14.4477 13.2933 14.2125 13.2094 13.9672 13.1219C14.0297 13.2754 14.1485 13.3515 14.3844 13.4437C14.4953 13.4863 14.5981 13.5582 14.6918 13.6312C14.752 13.6785 14.841 13.7586 14.7742 13.8367C14.7035 13.9207 14.6242 13.8269 14.5645 13.7804C14.4535 13.6949 14.3313 13.648 14.1961 13.6109C14.0668 13.5746 13.9524 13.4851 13.8371 13.4199C13.9887 13.5879 14.1485 13.764 14.3063 13.9406C14.3555 13.9969 14.4082 14.0519 14.4446 14.116C14.4645 14.1488 14.4524 14.2008 14.4535 14.2433C14.4102 14.2402 14.3539 14.2523 14.3242 14.2297C14.2067 14.139 14.0965 14.0379 13.9844 13.939C13.8477 13.8187 13.7133 13.6965 13.5617 13.5605C13.5922 13.7816 13.7133 13.916 13.8563 14.0371C13.9758 14.139 14.0684 14.2605 14.0973 14.4172C14.1063 14.4633 14.0781 14.5152 14.066 14.5644C14.0235 14.539 13.9614 14.525 13.9403 14.4871C13.8501 14.3304 13.7247 14.1969 13.5739 14.0972C13.4891 14.0398 13.4391 13.9301 13.3649 13.8332C13.3996 13.9371 13.4309 14.0324 13.4641 14.1277C13.5176 14.2793 13.5723 14.4297 13.625 14.5816C13.6411 14.6216 13.6494 14.6643 13.6492 14.7074C13.6465 14.7406 13.6258 14.7906 13.6024 14.798C13.5742 14.8062 13.5258 14.7847 13.5051 14.7582C13.4656 14.7105 13.4383 14.6523 13.4117 14.5972C13.2938 14.3543 13.1778 14.1094 13.052 13.8441C12.9949 14.0234 13.0379 14.1668 13.0953 14.3113C13.1422 14.4308 13.1856 14.5531 13.2106 14.6789C13.2246 14.7472 13.202 14.8261 13.186 14.8972C13.1801 14.9187 13.1395 14.9449 13.1153 14.9441C13.0918 14.9441 13.0492 14.9136 13.0477 14.8945C13.0297 14.6484 12.9117 14.4422 12.8094 14.2265C12.7723 14.15 12.7848 14.0515 12.7574 13.9625C12.7461 14.1992 12.734 14.4347 12.7219 14.6715C12.7188 14.7422 12.7203 14.8144 12.7004 14.882C12.6875 14.9261 12.643 14.9644 12.6121 15.0039C12.5828 14.9633 12.5301 14.9242 12.5266 14.8808C12.5035 14.6191 12.491 14.3566 12.4766 14.0957C12.4739 14.0383 12.4766 13.9804 12.4606 13.9203C12.3746 14.0203 12.328 14.1482 12.3293 14.2801C12.3293 14.4082 12.3406 14.5398 12.3231 14.6664C12.3117 14.7523 12.2664 14.8363 12.2227 14.9136C12.2071 14.9414 12.152 14.9465 12.1141 14.9609C12.1012 14.9273 12.084 14.8945 12.0754 14.859C12.0711 14.8375 12.0805 14.8129 12.086 14.7898C12.1258 14.6367 12.1449 14.4879 12.1024 14.3265C12.0774 14.2304 12.0985 14.1219 12.0985 14.0105C12.0102 14.1941 11.9223 14.3765 11.834 14.5574C11.8012 14.625 11.7692 14.6941 11.7266 14.7531C11.7051 14.7808 11.6555 14.7879 11.6196 14.8035C11.6043 14.7672 11.5746 14.7277 11.5785 14.6933C11.5903 14.6168 11.616 14.5418 11.6422 14.4679C11.7242 14.232 11.8082 13.9972 11.9004 13.7347C11.7203 13.832 11.6571 13.9785 11.5895 14.1254C11.5309 14.2528 11.4592 14.3738 11.3754 14.4863C11.3313 14.5472 11.252 14.6222 11.1699 14.5531C11.1485 14.5367 11.1887 14.4164 11.2274 14.3633C11.3145 14.2437 11.3676 14.1179 11.4059 13.9734C11.4387 13.85 11.5258 13.7414 11.5875 13.6293C11.409 13.789 11.2266 13.9562 11.0406 14.1207C10.9885 14.168 10.9317 14.2098 10.8711 14.2457C10.8473 14.2594 10.7965 14.2551 10.7766 14.2379C10.7594 14.2207 10.7535 14.1687 10.766 14.1453C10.7946 14.089 10.8336 14.039 10.8742 13.9918C11.0598 13.7847 11.2473 13.5797 11.4504 13.3543C11.234 13.3812 11.1141 13.5051 10.9895 13.6316C10.8974 13.7209 10.795 13.7988 10.6844 13.8636C10.6188 13.9054 10.5129 13.9547 10.4633 13.8668C10.4067 13.7648 10.5274 13.7301 10.5918 13.6937C10.7156 13.6187 10.8074 13.5199 10.893 13.4039C10.9664 13.3047 11.0813 13.2351 11.1809 13.1508L10.5442 13.3726C10.4848 13.3941 10.4262 13.423 10.3656 13.4289C10.3168 13.4355 10.2649 13.4125 10.2149 13.4027C10.2403 13.3558 10.2555 13.2875 10.2946 13.266C10.4938 13.1601 10.702 13.0644 10.9067 12.9648L11.1535 12.8445C10.9973 12.7855 10.877 12.8054 10.6598 12.9004C10.5559 12.9447 10.4474 12.9776 10.3364 12.9984C10.2744 13.0083 10.211 13.0035 10.1512 12.9844C10.1172 12.975 10.0942 12.9308 10.0664 12.9031C10.0942 12.8769 10.1207 12.8304 10.152 12.8277C10.3582 12.8035 10.5403 12.7261 10.7203 12.6211C10.8117 12.5676 10.9387 12.5726 11.0774 12.5457C10.8098 12.5324 10.5696 12.5215 10.3305 12.5093C10.2518 12.5074 10.1735 12.4981 10.0965 12.4816C10.0621 12.4734 10.0387 12.4277 10.0094 12.4C10.0383 12.373 10.0637 12.3285 10.0977 12.3195C10.1739 12.3011 10.2528 12.2972 10.3313 12.2933C10.5809 12.2801 10.8289 12.2687 11.1106 12.2554C10.9278 12.1219 10.7543 12.1062 10.5731 12.1304C10.4198 12.1517 10.264 12.1191 10.1321 12.0383C10.0926 12.0136 10.075 11.9551 10.0481 11.9117C10.0957 11.898 10.1492 11.8633 10.1903 11.873C10.3572 11.9144 10.5308 11.922 10.7008 11.8953C10.8391 11.8738 10.9891 11.9273 11.1356 11.9488C10.9227 11.8476 10.7043 11.7449 10.4883 11.6386C10.4067 11.6009 10.3279 11.5572 10.2528 11.5078C10.2278 11.4906 10.2071 11.4363 10.2156 11.4101C10.2235 11.3867 10.2774 11.3613 10.3078 11.3664C10.3883 11.3789 10.4672 11.4027 10.5446 11.4297C10.7813 11.5105 11.016 11.5953 11.261 11.682C11.2004 11.5316 11.0801 11.457 10.8449 11.3597C10.7184 11.3062 10.609 11.2117 10.4961 11.132C10.4695 11.1084 10.4507 11.0772 10.4422 11.0426C10.4348 11.0164 10.4375 10.9742 10.4539 10.9574C10.4703 10.941 10.5098 10.9461 10.5387 10.9429C10.543 10.9429 10.5473 10.9445 10.55 10.9469C10.7731 11.1914 11.1571 11.1379 11.3836 11.3863C11.3696 11.3656 11.3555 11.3437 11.3383 11.3254C11.1778 11.148 11.0168 10.9703 10.8574 10.7918C10.822 10.7553 10.7928 10.7134 10.7707 10.6676C10.7586 10.6363 10.7574 10.5804 10.7758 10.5629C10.7965 10.5441 10.8531 10.5449 10.8817 10.5605C10.9328 10.5867 10.9785 10.6261 11.0223 10.666C11.2262 10.848 11.4293 11.0324 11.6524 11.2328C11.6324 11.0394 11.5266 10.9265 11.4184 10.8082C11.318 10.698 11.2367 10.5699 11.1489 10.4461C11.1358 10.4263 11.1295 10.4029 11.1309 10.3793C11.1375 10.3328 11.1539 10.2875 11.166 10.241C11.2071 10.2633 11.2656 10.2765 11.2864 10.3109C11.3836 10.4765 11.5004 10.6129 11.6649 10.7207C11.7453 10.7754 11.7899 10.8855 11.859 10.9808C11.85 10.9453 11.8469 10.9176 11.8367 10.8918C11.7676 10.6949 11.6969 10.5011 11.6278 10.3035C11.6114 10.2601 11.5867 10.2144 11.5867 10.1703C11.586 10.1133 11.6059 10.0566 11.6164 9.99919C11.6641 10.0304 11.7324 10.0519 11.7551 10.0972C11.8809 10.3363 11.9938 10.5832 12.1114 10.8269C12.1305 10.8648 12.1496 10.9015 12.1754 10.9535C12.2364 10.7586 12.1739 10.6031 12.1098 10.4422C12.066 10.3258 12.0336 10.2054 12.0129 10.0828C12.0024 10.0285 12.0184 9.96521 12.0375 9.91013C12.0465 9.8863 12.0871 9.86091 12.1149 9.85818C12.1356 9.8574 12.1774 9.89138 12.1789 9.91091C12.2024 10.1469 12.3031 10.3511 12.4121 10.5574C12.4539 10.6363 12.4422 10.7449 12.4664 10.8398C12.4828 10.5504 12.5008 10.2617 12.5176 9.97185C12.5184 9.95544 12.5149 9.93708 12.5215 9.92576C12.5496 9.8824 12.5789 9.84021 12.609 9.79919C12.6403 9.84255 12.6973 9.88396 12.7 9.92927C12.7242 10.2219 12.7364 10.5164 12.7528 10.8113C12.7555 10.832 12.759 10.8508 12.7649 10.8976ZM10.6278 12.0883C10.7383 12.098 10.8528 12.098 10.9614 12.1254C11.0617 12.15 11.1547 12.207 11.2543 12.2398C11.3028 12.2574 11.359 12.2511 11.4114 12.2562C11.2524 12.1793 11.0985 12.1066 10.9371 12.0695C10.8414 12.0476 10.7313 12.0804 10.6278 12.0883C10.4735 12.0519 10.3192 12.0148 10.1653 11.9781C10.302 12.0961 10.4629 12.1023 10.6278 12.0883ZM14.3543 13.4918C14.461 13.5691 14.5699 13.6445 14.6735 13.7265C14.6965 13.7437 14.702 13.7855 14.7153 13.816C14.7317 13.7961 14.7391 13.7691 14.7281 13.7543C14.6399 13.614 14.5227 13.5144 14.3496 13.4945C14.2 13.407 14.0328 13.3445 13.9278 13.1918C13.8874 13.1385 13.8387 13.0921 13.7836 13.0543C13.7457 13.0265 13.6965 13.014 13.652 12.9945C13.7403 13.107 13.8489 13.1836 13.9367 13.2797C14.0429 13.4021 14.1928 13.4783 14.3543 13.4918ZM10.9047 11.3086C10.7401 11.2506 10.5988 11.1408 10.502 10.9957C10.4672 11.1152 10.7356 11.3297 10.9082 11.3058C10.9239 11.325 10.9395 11.3457 10.9582 11.3613C11.0711 11.4476 11.1871 11.5308 11.2989 11.6187C11.3563 11.6648 11.4051 11.7226 11.4653 11.766C11.4957 11.7883 11.5406 11.7906 11.5793 11.8004C11.5 11.707 11.4012 11.6445 11.3278 11.5613C11.2195 11.4315 11.0703 11.3424 10.9047 11.3086ZM10.636 12.8535C10.825 12.7769 11.0223 12.766 11.2235 12.7769C11.2848 12.7797 11.3481 12.764 11.4078 12.7476C11.4285 12.7418 11.4422 12.7105 11.466 12.6816C11.2621 12.6929 11.077 12.6898 10.8977 12.7199C10.8055 12.7351 10.725 12.8093 10.6375 12.8566L10.2082 12.9312L10.2141 12.9605C10.3641 12.9672 10.5106 12.9574 10.636 12.8535ZM13.2 13.5078C13.1746 13.4961 13.1492 13.4859 13.1235 13.4754C13.1149 13.4812 13.1063 13.4879 13.0977 13.4945C13.2516 13.8636 13.4043 14.2344 13.5574 14.6043C13.5656 14.6019 13.5731 14.5984 13.5821 14.5961C13.4535 14.2312 13.3262 13.8672 13.1981 13.5043C13.2801 13.6168 13.386 13.7191 13.4387 13.8449C13.5227 14.0441 13.6996 14.1238 13.8551 14.2355C13.7449 14.1066 13.6063 13.9965 13.5145 13.857C13.4199 13.7156 13.3949 13.5289 13.2356 13.3961C13.2199 13.4453 13.2106 13.4765 13.2 13.507M12.2301 11.1437C12.1406 10.9679 12.05 10.791 11.9621 10.6133C11.8871 10.4621 11.8156 10.309 11.7422 10.1578C11.7331 10.1612 11.7242 10.1652 11.7156 10.1699C11.8711 10.5426 12.0262 10.9168 12.1813 11.2902L12.2281 11.2804V11.1418L12.3028 11.2355C12.3028 11.0883 12.3055 10.9402 12.302 10.7926C12.3004 10.7312 12.302 10.6586 12.2715 10.6109C12.1539 10.4265 12.1078 10.2242 12.0891 10.0129C12.0891 10.0086 12.0778 10.0062 12.0321 9.98005C12.0633 10.1222 12.0633 10.2488 12.116 10.3469C12.2582 10.6027 12.2539 10.8699 12.2301 11.1437ZM10.8848 14.2199C10.8989 14.2019 10.9102 14.182 10.9274 14.1672C11.2059 13.9148 11.4864 13.6629 11.7629 13.4086C11.7906 13.3828 11.7981 13.3332 11.8156 13.2937C11.7774 13.3101 11.7297 13.3152 11.7035 13.3414C11.4473 13.6003 11.1926 13.8607 10.9395 14.1226C10.9145 14.1484 10.9031 14.1867 10.8848 14.2187C10.8051 14.1605 10.8641 14.1191 10.9039 14.0781C11.1449 13.832 11.3875 13.5859 11.6293 13.3394C11.6684 13.2996 11.702 13.2554 11.7481 13.2011C11.6196 13.2109 10.8285 14.0738 10.8078 14.209C10.834 14.2117 10.8598 14.2156 10.8848 14.2187M12.9985 13.6652C13.0918 13.8496 13.1856 14.0328 13.2781 14.2187C13.3563 14.3773 13.4313 14.5379 13.5086 14.6976C13.5168 14.6945 13.525 14.6894 13.534 14.6863C13.3711 14.2957 13.2098 13.9054 13.0477 13.5156C13.0321 13.5172 13.0164 13.5191 13.0008 13.5222C13.0008 13.5719 13.0008 13.6203 13 13.6687L12.9047 13.5429C12.9153 13.7586 12.8996 13.9496 12.941 14.1281C12.9946 14.3574 13.0942 14.575 13.1696 14.7863C13.1898 14.6708 13.1683 14.5519 13.109 14.4508C12.9633 14.2023 12.9746 13.9347 12.9985 13.6652ZM13.7289 11.8094L13.6942 11.909C13.7156 11.9097 13.7403 11.9172 13.7574 11.9109C14.1317 11.7531 14.5055 11.5933 14.8789 11.4344C14.877 11.4269 14.8731 11.4203 14.8711 11.4129L13.725 11.8133C13.8367 11.7328 13.9504 11.6519 14.0614 11.5699C14.1446 11.5082 14.2465 11.457 14.3043 11.3758C14.3891 11.2578 14.4809 11.1601 14.6086 11.091C14.6551 11.0664 14.6942 11.0277 14.7367 10.9945C14.6429 11.0299 14.5542 11.0775 14.4727 11.1359C14.4059 11.1828 14.3352 11.2312 14.2879 11.2953C14.204 11.4135 14.087 11.5043 13.9516 11.5562C13.8324 11.6039 13.7246 11.6812 13.6129 11.7453L13.6258 11.7914C13.6617 11.798 13.6946 11.8039 13.7289 11.8094ZM11.5153 12.9851C11.3992 13.0691 11.2942 13.1742 11.1672 13.234C10.9903 13.316 10.8989 13.4574 10.8153 13.614C10.9375 13.5101 11.0406 13.3804 11.1742 13.2972C11.3129 13.2097 11.484 13.173 11.6117 13.0281L11.5129 12.9879C11.5188 12.9539 11.5258 12.9211 11.5391 12.8621L10.3469 13.3715C10.3512 13.3797 10.3535 13.3871 10.3567 13.3953C10.7426 13.2582 11.1293 13.1211 11.5153 12.9851ZM12.3567 13.4097C12.636 13.4972 12.636 13.4972 12.868 13.4133C12.8504 13.4469 12.8375 13.4738 12.8203 13.5051C13.3539 13.4535 13.7864 12.8875 13.7422 12.314C13.6946 11.6945 13.1645 11.2394 12.5274 11.2699C11.9364 11.2996 11.4653 11.8203 11.4762 12.4316C11.4867 12.9886 11.9598 13.5121 12.4551 13.5129C12.427 13.4836 12.3985 13.4543 12.3567 13.4097ZM13.702 12.8777L13.6844 12.9195C13.7418 13.0019 14.6817 13.3629 14.8965 13.3726C14.4981 13.2074 14.0992 13.0429 13.702 12.8777ZM12.6489 14.8855L12.6664 14.8871C12.6879 14.4816 12.709 14.0754 12.7242 13.6699C12.7262 13.6437 12.6934 13.6152 12.6758 13.5875C12.6664 13.5926 12.6578 13.5957 12.6489 13.5996V14.8855ZM12.6465 11.2191C12.7313 11.1609 12.7313 11.1609 12.7016 10.5742C12.691 10.357 12.6762 10.139 12.6629 9.92107L12.6465 9.92263V11.2191ZM13.5094 10.1668C13.5019 10.1622 13.4939 10.1584 13.4856 10.1554C13.45 10.2277 13.4137 10.3 13.3793 10.3734C13.261 10.6219 13.141 10.8679 13.0266 11.1179C13.0004 11.1715 12.9574 11.2355 13.0512 11.3023C13.2074 10.9172 13.3578 10.541 13.5094 10.1668ZM12.5789 13.5703C12.4914 13.6574 12.509 14.6074 12.5789 14.8855V13.5703ZM13.7918 12.3344C13.7969 12.3469 13.8016 12.359 13.8074 12.3719H15.0844C14.6921 12.3324 14.2987 12.3047 13.9047 12.2886C13.868 12.2867 13.8301 12.3191 13.7934 12.3344M15.0985 12.4465H13.8043L13.8051 12.5082C14.2364 12.5172 14.6668 12.4703 15.0985 12.4465ZM10.1356 12.4183C10.1356 12.4301 10.1356 12.441 10.1344 12.4523C10.3235 12.4629 10.5129 12.4754 10.7031 12.4851C10.9063 12.4965 11.1094 12.5097 11.3129 12.5148C11.3473 12.5156 11.3828 12.4816 11.4176 12.4636C11.3864 12.4488 11.3543 12.4219 11.3239 12.4211C10.9278 12.4176 10.5321 12.4183 10.1356 12.4183ZM12.5797 9.9199L12.5641 9.92341C12.5426 10.3179 12.5207 10.7125 12.5016 11.107C12.5008 11.1418 12.5301 11.1797 12.5449 11.2164C12.5563 11.212 12.5679 11.2082 12.5797 11.2051V9.91912M10.1778 12.3551H11.4426C11.3465 12.2801 10.3813 12.3043 10.1778 12.3551ZM14.3281 10.6422L14.3114 10.625C14.0239 10.8883 13.7356 11.1519 13.4477 11.414C13.4322 11.4264 13.4206 11.443 13.4141 11.4617C13.4098 11.4812 13.4156 11.5035 13.4172 11.5238C13.4379 11.5191 13.4625 11.5199 13.4766 11.5086C13.5125 11.4789 13.543 11.4426 13.5758 11.4097C13.8262 11.1543 14.077 10.8972 14.3281 10.6414M12.8586 11.2265C12.8793 11.234 12.8996 11.2422 12.9196 11.2504C12.9367 11.2176 12.959 11.1863 12.9688 11.1519C13.0024 11.0168 13.0328 10.8804 13.0649 10.7445C13.0774 10.6918 13.1086 10.6336 13.0969 10.5859C13.0453 10.3695 13.0668 10.159 13.1274 9.94998C13.1309 9.93513 13.1117 9.91443 13.1004 9.89099C13.0805 9.9863 13.0598 10.0633 13.0492 10.1418C13.0344 10.2449 13.0106 10.3515 13.0215 10.4527C13.0379 10.5984 13.0188 10.7293 12.9633 10.8636C12.9156 10.9789 12.8922 11.1039 12.8586 11.2265ZM12.225 13.5183C12.2075 13.5159 12.1899 13.5142 12.1723 13.5133L11.741 14.5879C11.7492 14.591 11.7582 14.5961 11.768 14.5992C11.9203 14.2785 12.0739 13.9574 12.2231 13.634C12.2383 13.6031 12.225 13.5574 12.225 13.5183ZM11.2024 14.491V14.5308C11.2364 14.5183 11.2856 14.5176 11.3039 14.4929C11.3852 14.3859 11.4774 14.2789 11.5301 14.1574C11.6039 13.9894 11.6789 13.8316 11.8281 13.7144C11.8914 13.6644 11.9422 13.5961 11.9906 13.5308C12.009 13.5051 12.0039 13.4617 12.009 13.4273C11.8961 13.5269 11.8016 13.6265 11.7223 13.7359C11.652 13.832 11.5703 13.9324 11.5446 14.0426C11.5028 14.2234 11.3727 14.3386 11.2758 14.4793C11.266 14.4926 11.2281 14.4886 11.2024 14.491ZM10.9024 10.6183C10.8961 10.6261 10.8883 10.634 10.8817 10.6426C10.9762 10.732 11.0715 10.8219 11.1637 10.9129C11.3539 11.1011 11.5414 11.2914 11.7332 11.4781C11.7528 11.4969 11.7891 11.4988 11.818 11.5086C11.8082 11.4789 11.8055 11.4441 11.7891 11.4187C11.7692 11.3894 11.7379 11.3695 11.7129 11.3453C11.4976 11.15 11.2817 10.9553 11.0653 10.7613C11.0125 10.714 10.9574 10.6664 10.9024 10.6183ZM14.327 14.1847C14.3344 14.1774 14.3411 14.1693 14.3469 14.1605C14.068 13.8816 13.7864 13.6019 13.5047 13.3238C13.4832 13.3015 13.4422 13.2992 13.4117 13.2883C13.4231 13.3222 13.4266 13.3648 13.4504 13.3879C13.5535 13.4894 13.6621 13.5863 13.7688 13.6836C13.9551 13.8527 14.1418 14.0179 14.327 14.1847ZM10.8594 10.714L10.8543 10.7168C10.9196 10.789 10.9836 10.8613 11.0496 10.934C11.2364 11.1394 11.4219 11.3472 11.6114 11.55C11.6387 11.5789 11.6848 11.5898 11.7219 11.6094L11.7324 11.5797C11.4418 11.2906 11.1496 11.0019 10.8594 10.714ZM10.3508 11.4355C10.741 11.5949 11.1309 11.7551 11.5457 11.9258C11.4996 11.8051 10.6621 11.4707 10.3508 11.4355ZM13.4875 11.5844C13.5024 11.6 13.518 11.6156 13.5344 11.6312C13.843 11.3359 14.1098 11.0011 14.4016 10.6902C14.4098 10.6976 14.4172 10.7051 14.4242 10.7133C14.111 11.0035 13.8 11.2929 13.4875 11.5844ZM13.7653 12.0894C13.7711 12.1 13.7758 12.1109 13.7809 12.1215C13.9281 12.1117 14.0766 12.1117 14.2219 12.0894C14.3305 12.0738 14.436 12.0312 14.5426 11.9984C14.643 11.9679 14.7403 11.9324 14.8406 11.9039C14.8996 11.8875 14.9617 11.8812 15.0235 11.8719C15.0184 11.8543 15.0145 11.8371 15.0102 11.8199C14.8883 11.8511 14.7594 11.8668 14.6457 11.9152C14.4739 11.9898 14.3043 12.0511 14.1125 12.0277C14.046 12.0193 13.9787 12.0205 13.9125 12.0312C13.8617 12.0394 13.8141 12.0687 13.7653 12.0894ZM13.2047 11.364L13.2504 11.3863C13.2957 11.3258 13.3336 11.2566 13.3879 11.2039C13.5586 11.0406 13.6793 10.8582 13.7434 10.623C13.7813 10.4886 13.8864 10.3613 14.0258 10.2801C13.986 10.2859 13.9344 10.2922 13.9129 10.3219C13.836 10.423 13.7535 10.5254 13.7031 10.6414C13.6317 10.8047 13.5645 10.9648 13.4156 11.0765C13.3626 11.1176 13.3156 11.1659 13.2758 11.2199C13.2446 11.2621 13.2274 11.3156 13.2047 11.364ZM11.6481 10.1363C11.6402 10.1404 11.632 10.1436 11.6235 10.1461C11.7586 10.5215 11.8926 10.8965 12.0317 11.2699C12.0406 11.2945 12.0813 11.307 12.1055 11.3269C12.1145 11.3187 12.1239 11.3105 12.1317 11.3027L11.6481 10.1363ZM11.4891 12.0156C11.4906 11.9984 11.4934 11.982 11.4957 11.9644C11.125 11.8121 10.7547 11.6594 10.384 11.5062C10.711 11.6933 11.0489 11.8554 11.3879 12.0133C11.4168 12.0269 11.4551 12.0156 11.4891 12.0156ZM11.6438 14.7418C11.6543 14.6976 11.6637 14.6406 11.6848 14.5879C11.8156 14.2562 11.9496 13.9265 12.0824 13.5949C12.0961 13.5586 12.1047 13.5211 12.1231 13.4625C11.9926 13.5441 11.6102 14.6293 11.6438 14.7418ZM14.9106 11.509L14.8942 11.4836L13.7317 11.9812C13.7414 12.0027 13.7516 12.023 13.7602 12.0453C14.1508 11.884 14.5266 11.6855 14.9106 11.509ZM14.8473 13.2898L14.8555 13.2679C14.5199 13.1078 14.1848 12.9476 13.8492 12.7902C13.8172 12.7754 13.7739 12.7875 13.7356 12.7875L13.7274 12.8273C14.1012 12.982 14.4739 13.1371 14.8473 13.2898ZM13.1082 11.3121C13.2137 11.2777 13.5871 10.3035 13.5977 10.0922L13.1082 11.3121ZM10.3699 13.2691C10.375 13.2773 10.3805 13.2871 10.3864 13.2953C10.7547 13.1383 11.1239 12.9793 11.4922 12.8215C11.4832 12.8023 11.4739 12.7824 11.4668 12.7621C11.0906 12.9078 10.7383 13.107 10.3699 13.2691ZM13.8168 12.5523C13.8184 12.5593 13.8192 12.5656 13.8211 12.5722C13.9781 12.6297 14.1328 12.6957 14.2934 12.7441C14.3688 12.7664 14.4563 12.7672 14.5352 12.7562C14.75 12.7285 14.9414 12.784 15.1332 12.8781C15.1106 12.8453 15.0864 12.8043 15.0535 12.7949C14.9309 12.7621 14.8031 12.7144 14.6797 12.7203C14.4824 12.7281 14.2981 12.7195 14.1227 12.6207C14.0633 12.5908 14.0005 12.5685 13.9356 12.5543C13.8977 12.5441 13.8567 12.5523 13.8168 12.5523ZM14.268 13.9418C14.2658 13.9459 14.263 13.9497 14.2598 13.9531C14.0395 13.7113 13.8207 13.4679 13.5985 13.2269C13.577 13.2035 13.5387 13.1972 13.5082 13.1824C13.5059 13.1894 13.5031 13.1937 13.5016 13.2C13.7559 13.4476 14.0129 13.6949 14.268 13.9418ZM14.8477 12.8031C14.6528 12.8031 14.4735 12.8238 14.3008 12.7965C14.1266 12.7695 13.9735 12.6367 13.766 12.6687C13.7828 12.7011 13.7906 12.7355 13.8035 12.7363C14.1434 12.7703 14.4676 12.9687 14.8477 12.8031ZM11.4426 12.1551C11.4504 12.1367 11.4582 12.1179 11.4668 12.0996C11.4258 12.0797 11.3871 12.0535 11.3434 12.0426C11.2453 12.0195 11.1371 12.0238 11.0465 11.9844C10.8461 11.8953 10.6559 11.9316 10.4547 12.0078C10.8117 11.875 11.1106 12.1238 11.4426 12.1551ZM11.3688 10.5219C11.359 10.5285 11.3504 10.5355 11.3418 10.5426C11.4059 10.6082 11.4621 10.682 11.5344 10.7367C11.6418 10.8156 11.7145 10.9133 11.7656 11.0383C11.8059 11.1386 11.861 11.234 11.9168 11.3269C11.9317 11.3511 11.9762 11.3566 12.0067 11.3695C11.9989 11.3351 12.0004 11.2933 11.9824 11.2676C11.7926 11.0066 11.6582 10.7011 11.3688 10.5219ZM12.3492 13.557C12.2102 13.6367 12.1246 14.2898 12.2125 14.5566C12.2199 14.3929 12.1977 14.223 12.2254 14.0636C12.2563 13.898 12.3707 13.7519 12.3492 13.557ZM13.6012 13.0742C13.5864 13.0914 13.5727 13.1086 13.5578 13.1269C13.6918 13.2297 13.8184 13.3465 13.9633 13.4328C14.1141 13.523 14.2824 13.5844 14.4438 13.6582L14.4653 13.6113C14.409 13.5867 14.3567 13.5488 14.2989 13.5379C14.1285 13.5074 13.9985 13.4183 13.8809 13.2945C13.8012 13.2094 13.6961 13.1461 13.6012 13.0742ZM13.0699 14.6183C13.0559 14.5636 13.0551 14.4801 13.0149 14.4242C12.8879 14.2472 12.8684 14.0515 12.8742 13.8426C12.8758 13.7543 12.8446 13.6664 12.8239 13.5531C12.7852 13.591 12.7641 13.6023 12.7656 13.6101C12.8395 13.959 12.8125 14.3367 13.0699 14.6183ZM12.2071 14.85C12.2184 14.8523 12.2301 14.8539 12.2406 14.8574C12.2629 14.7344 12.3117 14.6097 12.3016 14.4898C12.2817 14.2672 12.3047 14.0621 12.4125 13.8652C12.4379 13.8183 12.4528 13.7625 12.4633 13.7101C12.4703 13.6746 12.4586 13.6351 12.4559 13.5972C12.3762 13.7847 12.2766 13.9676 12.2668 14.1562C12.2547 14.384 12.2727 14.6125 12.1969 14.8347C12.1957 14.8375 12.2043 14.8453 12.2071 14.85ZM12.1633 10.1699C12.1766 10.2226 12.1766 10.3136 12.2203 10.3754C12.3446 10.5547 12.3645 10.7504 12.359 10.9586C12.3574 11.0469 12.3887 11.1344 12.4055 11.2219C12.4215 11.2269 12.4375 11.2301 12.452 11.234C12.459 11.2195 12.4703 11.2039 12.4676 11.1906C12.3992 10.8328 12.4043 10.4539 12.1633 10.1699ZM10.7711 11.1965C10.8395 11.2211 10.911 11.2398 10.9758 11.2722C11.0879 11.3297 11.1989 11.3898 11.3043 11.4601C11.3938 11.5211 11.4707 11.6015 11.5574 11.6676C11.5813 11.6847 11.6242 11.6797 11.6578 11.6847C11.6356 11.6527 11.6199 11.6133 11.5903 11.5922C11.5336 11.5515 11.4571 11.5328 11.4117 11.4844C11.2387 11.3008 11.0281 11.198 10.7711 11.1965ZM13.7957 12.1957L13.8078 12.2535C14.1641 12.184 14.5418 12.2015 14.8414 11.9449C14.7774 11.9629 14.6926 11.9695 14.6324 12.0105C14.4723 12.1242 14.2992 12.1504 14.1094 12.1472C14.0047 12.1453 13.8992 12.1781 13.7957 12.1957ZM13.3012 11.4219C13.3203 11.4359 13.341 11.4488 13.3586 11.4629C13.5059 11.1543 13.8481 10.9578 13.8324 10.5461C13.8055 10.6094 13.7676 10.6625 13.7586 10.7207C13.7301 10.8972 13.6356 11.0281 13.5094 11.1492C13.4278 11.2277 13.3696 11.3308 13.3012 11.4219ZM10.4035 12.85C10.4516 12.8359 10.5285 12.8328 10.5821 12.7957C10.7485 12.6797 10.9278 12.6465 11.1262 12.6523C11.2274 12.6558 11.3309 12.6187 11.4336 12.5996C11.4278 12.5808 11.425 12.5633 11.4199 12.5445C11.0676 12.6238 10.6867 12.5926 10.4035 12.85ZM11.9262 13.3773L11.868 13.3394C11.7274 13.648 11.3844 13.8429 11.4 14.2535C11.4262 14.1945 11.461 14.1476 11.4692 14.0972C11.4969 13.9051 11.6024 13.7629 11.7387 13.632C11.8145 13.5593 11.8645 13.4633 11.9262 13.3773ZM11.8754 11.4547C11.8871 11.4461 11.8989 11.4359 11.911 11.4261C11.7231 11.232 11.7457 10.9019 11.4793 10.7679C11.5426 10.8754 11.6153 10.9883 11.6778 11.1058C11.718 11.1812 11.7391 11.2664 11.7789 11.3418C11.8004 11.3847 11.8418 11.4176 11.8754 11.4547ZM12.7457 11.1972C12.7656 11.2035 12.7867 11.2078 12.8082 11.2148C12.8125 10.9488 13.0449 10.7336 12.9719 10.4844C12.927 10.6152 12.8715 10.7719 12.8211 10.9293C12.7926 11.0172 12.7711 11.1074 12.7457 11.1972ZM11.0074 13.5074C11.1344 13.4433 11.2684 13.3765 11.402 13.3082C11.4688 13.2746 11.5364 13.2441 11.5989 13.2035C11.6227 13.189 11.6344 13.1543 11.6508 13.1289L11.6278 13.1066C11.4508 13.2969 11.1364 13.2738 11.0071 13.5074M13.5641 11.6496C13.5754 11.6656 13.5871 11.6808 13.5985 11.6957C13.7739 11.5043 14.0856 11.5254 14.2141 11.3101C14.0684 11.3777 13.9004 11.4531 13.7367 11.5355C13.675 11.5656 13.6207 11.6109 13.5641 11.6496ZM13.734 14.0168C13.6715 13.9097 13.6094 13.8086 13.5547 13.7023C13.5129 13.6226 13.4875 13.5344 13.4465 13.4554C13.4258 13.4168 13.384 13.3886 13.3528 13.3558L13.3231 13.3804C13.5098 13.5625 13.4875 13.8742 13.734 14.0168ZM10.9535 13.6054C10.7996 13.6933 10.6789 13.8133 10.5039 13.8281C10.6063 13.8914 10.8039 13.7953 10.9535 13.6054ZM13.9039 14.1301L13.8735 14.1476C13.9254 14.2379 13.9762 14.3277 14.0274 14.4191C14.0395 14.4109 14.052 14.4043 14.0645 14.3957C14.0106 14.3078 13.9574 14.2179 13.9039 14.1301ZM11.2055 10.3754C11.1934 10.3828 11.1813 10.391 11.1692 10.3976C11.2219 10.4898 11.275 10.5804 11.327 10.6715C11.3375 10.6664 11.3485 10.6601 11.3582 10.6551L11.2055 10.3754Z" fill="#7B4022"/>
<path fill-rule="evenodd" clip-rule="evenodd" d="M12.3567 13.4101C12.3985 13.4547 12.427 13.484 12.4547 13.5133C11.9594 13.5125 11.4864 12.989 11.4758 12.432C11.4653 11.8211 11.9364 11.3004 12.527 11.2703C13.1645 11.2398 13.6942 11.6949 13.7418 12.3144C13.7856 12.8879 13.3535 13.4539 12.8199 13.5054C12.8371 13.4742 12.85 13.4472 12.8676 13.4136C12.636 13.4976 12.636 13.4976 12.3567 13.4101ZM12.8332 12.5234C12.8289 12.5347 12.8246 12.5476 12.8192 12.559C12.8289 12.564 12.841 12.5679 12.8473 12.5754C12.8719 12.6043 12.8949 12.6328 12.9184 12.6629C12.8836 12.6695 12.8473 12.6785 12.8114 12.6836C12.7914 12.6867 12.7621 12.6754 12.7508 12.6851C12.6461 12.7812 12.5524 12.75 12.4571 12.6926C12.4102 12.6859 12.3633 12.6789 12.3164 12.6711L12.4055 12.5265C12.3594 12.5394 12.3047 12.5406 12.277 12.5676C12.2524 12.5906 12.2391 12.6547 12.2547 12.6808C12.2762 12.7179 12.3254 12.7449 12.3684 12.7617C12.4004 12.7738 12.4391 12.764 12.475 12.764L12.4824 12.7968C12.4383 12.8101 12.393 12.8359 12.3492 12.834C12.2832 12.8316 12.2199 12.834 12.2199 12.9121C12.2207 12.9781 12.2688 13.0222 12.3457 13.0222C12.5278 13.0207 12.7098 13.0215 12.891 13.0207C12.9059 13.0207 12.9281 13.023 12.9364 13.014C12.9649 12.9785 12.9996 12.9414 13.011 12.9004C13.0137 12.8855 12.9567 12.8441 12.9219 12.8336C12.8602 12.8164 12.7953 12.8121 12.7321 12.8035C12.7321 12.7929 12.7321 12.782 12.7328 12.7703C12.7711 12.7672 12.811 12.7715 12.8473 12.7609C12.8914 12.7469 12.9492 12.7304 12.9723 12.6965C12.9903 12.6672 12.9828 12.5988 12.959 12.5699C12.9332 12.5398 12.877 12.5375 12.8332 12.5234ZM11.9332 11.9535C12.2977 11.8519 12.4461 11.8754 12.4598 12.0367C12.2715 11.9586 12.0914 11.9308 11.9278 12.1031C12.0938 12.273 12.2778 12.2422 12.4676 12.1804C12.3391 12.2972 12.186 12.2922 12.0266 12.2836C12.0965 12.3164 12.1703 12.3457 12.243 12.3433C12.3168 12.341 12.3895 12.3047 12.4735 12.2808V12.5234C12.5449 12.4043 12.5629 12.0367 12.5071 11.9402C12.4957 11.9195 12.48 11.9015 12.461 11.8875C12.3371 11.7879 12.0336 11.784 11.9332 11.9535ZM13.3012 12.1027C13.1367 11.9285 12.9539 11.9613 12.752 12.0402C12.7856 11.8871 12.9016 11.8929 12.9922 11.8922C13.0883 11.8922 13.1844 11.9242 13.3074 11.9476C13.1762 11.8199 13.0465 11.7969 12.9 11.8304C12.7492 11.8652 12.6961 11.9211 12.6926 12.0715C12.6895 12.1926 12.6996 12.3152 12.7067 12.4363C12.7086 12.4617 12.7258 12.4875 12.7364 12.5125L12.7625 12.5074V12.2715C12.918 12.3433 13.0602 12.3918 13.2305 12.2586C13.043 12.2949 12.8906 12.2949 12.7625 12.1804C12.9524 12.2465 13.1332 12.2707 13.3012 12.1027ZM12.4289 13.2273H12.8074C12.7547 13.2023 12.7156 13.1824 12.677 13.1633C12.677 13.1535 12.6758 13.1433 12.675 13.1347C12.7418 13.1347 12.8074 13.1289 12.8727 13.1355C12.9567 13.1461 12.9852 13.1336 13.0094 13.0664H12.2203C12.2621 13.0984 12.3141 13.1238 12.3676 13.1312C12.4364 13.1394 12.5059 13.1328 12.575 13.1328C12.575 13.1426 12.575 13.1535 12.5735 13.1633C12.5293 13.1824 12.4852 13.2031 12.4297 13.2273M11.5153 12.9844L10.3571 13.3949C10.3535 13.3867 10.3512 13.3793 10.3473 13.3711C10.7356 13.2054 11.1223 13.0394 11.5395 12.8617C11.5262 12.9207 11.5188 12.9535 11.5133 12.9875L11.5153 12.9844ZM13.7032 12.8789C14.1004 13.0441 14.4992 13.209 14.8977 13.3742C14.6828 13.3644 13.7434 13.0035 13.6856 12.9211L13.7032 12.8789ZM13.7305 11.8086L13.6281 11.7914L13.6153 11.7453C13.727 11.6812 13.8352 11.6039 13.9539 11.5562C14.0946 11.4992 14.2028 11.4176 14.2903 11.2953C14.3375 11.2312 14.4082 11.1828 14.475 11.1359C14.5535 11.0789 14.6418 11.0312 14.7391 10.9945C14.6965 11.0277 14.6574 11.0664 14.611 11.091C14.4832 11.1601 14.391 11.2578 14.3067 11.3758C14.2489 11.457 14.1469 11.5082 14.0637 11.5699C13.9528 11.6519 13.8391 11.7328 13.7274 11.8133L13.7305 11.8086Z" fill="#FDD12E"/>
<path fill-rule="evenodd" clip-rule="evenodd" d="M13.7266 11.8125C14.1086 11.6785 14.4899 11.5449 14.8727 11.4121C14.8746 11.4195 14.8785 11.4261 14.8805 11.4336C14.5071 11.5922 14.1332 11.7519 13.759 11.9101C13.7418 11.9168 13.7172 11.909 13.6957 11.9082L13.7305 11.8086L13.7266 11.8125ZM12.6489 14.8867V13.6008C12.6578 13.5969 12.6664 13.5933 12.6758 13.5886C12.6934 13.6164 12.7262 13.6449 12.7242 13.6711C12.709 14.0765 12.6875 14.4828 12.6664 14.8883L12.6489 14.8867ZM12.6465 11.2203V9.9238L12.6629 9.92224C12.6758 10.1402 12.6906 10.3582 12.7016 10.5754C12.7313 11.1617 12.7313 11.1617 12.6465 11.2203ZM13.5094 10.1679C13.3578 10.5422 13.2074 10.9183 13.0512 11.3031C12.9574 11.2363 13 11.1722 13.0266 11.1187C13.141 10.8683 13.2614 10.6222 13.3793 10.3742C13.4141 10.3008 13.4504 10.2285 13.4856 10.1562C13.4938 10.1597 13.5012 10.1633 13.5094 10.1679ZM12.5781 13.5715V14.8867C12.5082 14.6086 12.491 13.6586 12.5781 13.5715ZM13.793 12.3355C13.8301 12.3203 13.8676 12.2879 13.9039 12.2898C14.2985 12.3078 14.693 12.3308 15.0836 12.373H13.8067C13.8013 12.3607 13.7962 12.3482 13.7914 12.3355M15.0969 12.4476C14.6653 12.4715 14.2348 12.5183 13.8035 12.5093L13.8028 12.4476H15.0969ZM10.134 12.4195C10.5305 12.4195 10.9258 12.4187 11.3219 12.4222C11.3524 12.423 11.3844 12.45 11.4157 12.4648C11.3809 12.4828 11.3453 12.5168 11.311 12.516C11.1074 12.5109 10.9043 12.4976 10.7012 12.4863C10.511 12.4765 10.3215 12.464 10.1324 12.4535C10.134 12.4422 10.134 12.4312 10.134 12.4195ZM12.5781 9.92107V11.207C12.5664 11.2101 12.5547 11.2144 12.5434 11.2183C12.5285 11.1812 12.4992 11.1437 12.5 11.109C12.5192 10.7133 12.541 10.3183 12.5625 9.92537L12.5781 9.92185M10.1758 12.357C10.3793 12.3062 11.3446 12.2824 11.4406 12.357H10.1758ZM14.3266 10.6445C14.0754 10.9004 13.8246 11.1574 13.5742 11.4133C13.5414 11.4461 13.511 11.4824 13.475 11.5121C13.461 11.5234 13.436 11.5226 13.4157 11.5273C13.4141 11.507 13.4082 11.4847 13.4125 11.4652C13.419 11.4465 13.4306 11.43 13.4461 11.4176C13.734 11.1543 14.0223 10.8906 14.3098 10.6285C14.3156 10.6339 14.3212 10.6395 14.3266 10.6453M13 13.6691V13.5219C13.0156 13.5187 13.0313 13.5168 13.0469 13.5152C13.209 13.9051 13.3703 14.2953 13.5332 14.6859C13.5242 14.689 13.516 14.6941 13.5078 14.6972C13.4305 14.5379 13.3555 14.3773 13.2774 14.2183C13.1852 14.0324 13.091 13.8492 12.9977 13.6648L13 13.6691ZM10.8848 14.2195C10.9031 14.1867 10.9145 14.148 10.9395 14.1226C11.1926 13.8601 11.4473 13.5984 11.7035 13.3414C11.7297 13.3152 11.7774 13.3101 11.8156 13.2937C11.7981 13.3332 11.791 13.3828 11.7629 13.4086C11.4864 13.6629 11.2059 13.9148 10.9274 14.1672C10.9102 14.182 10.8989 14.2015 10.8848 14.2195V14.2207ZM12.8571 11.2293C12.8907 11.1066 12.9141 10.9816 12.9617 10.8656C13.0176 10.7312 13.0364 10.6004 13.0199 10.4547C13.0094 10.3535 13.0328 10.2469 13.0477 10.1437C13.0582 10.0656 13.0789 9.98865 13.0989 9.89294C13.1102 9.91677 13.1293 9.93708 13.1258 9.95193C13.0653 10.1609 13.0438 10.3715 13.0953 10.5879C13.1071 10.6355 13.0758 10.6937 13.0633 10.7465C13.0313 10.8824 13.0008 11.0187 12.9672 11.1539C12.9574 11.1883 12.9352 11.2195 12.918 11.2523L12.8571 11.2293ZM12.2266 11.1398V11.2793L12.1797 11.289C12.0246 10.9156 11.8696 10.5414 11.7141 10.1687C11.7226 10.1639 11.7314 10.1598 11.7406 10.1566C11.8141 10.3078 11.8852 10.4609 11.9606 10.6121C12.0485 10.7898 12.1391 10.9668 12.2285 11.1426L12.2266 11.1398Z" fill="#FDD12E"/>
<path fill-rule="evenodd" clip-rule="evenodd" d="M10.8848 14.2187C10.8598 14.2152 10.834 14.2113 10.8078 14.209C10.8285 14.0738 11.6196 13.2109 11.7481 13.2011C11.702 13.2558 11.6684 13.3 11.6293 13.3394C11.3875 13.5859 11.1449 13.832 10.9039 14.0781C10.8641 14.1191 10.8051 14.1605 10.8848 14.2195V14.2187ZM12.2227 13.5211C12.2227 13.5601 12.236 13.6058 12.2211 13.6371C12.0719 13.9605 11.9184 14.2812 11.766 14.6023C11.7563 14.5988 11.7473 14.5941 11.7391 14.591C11.8821 14.2332 12.0262 13.8742 12.1703 13.5164C12.1871 13.5172 12.2055 13.5187 12.2227 13.5211ZM11.2008 14.4922C11.2266 14.4898 11.2645 14.4941 11.2742 14.4808C11.3707 14.3402 11.5008 14.225 11.543 14.0441C11.5688 13.934 11.6504 13.8336 11.7207 13.7375C11.8 13.6281 11.8946 13.5285 12.0074 13.4289C12.0024 13.4633 12.0074 13.5062 11.9891 13.5324C11.9406 13.5976 11.8899 13.666 11.8266 13.716C11.6774 13.8332 11.6028 13.991 11.5285 14.159C11.4758 14.2808 11.3836 14.3875 11.3024 14.4945C11.284 14.5191 11.2348 14.5195 11.2008 14.5324V14.4922ZM10.9008 10.6211C10.9559 10.6687 11.0106 10.7164 11.0633 10.764C11.2801 10.9582 11.4953 11.1523 11.711 11.348C11.736 11.3722 11.7676 11.3918 11.7871 11.4215C11.8035 11.4469 11.8063 11.4816 11.816 11.5113C11.7871 11.5015 11.7508 11.4996 11.7313 11.4808C11.5395 11.2937 11.352 11.1039 11.1617 10.9156C11.0689 10.8243 10.9749 10.7342 10.8797 10.6453C10.8867 10.6367 10.8949 10.6289 10.9008 10.6211ZM14.3254 14.1875C14.1403 14.0203 13.9535 13.8551 13.7668 13.6867C13.6602 13.5894 13.5512 13.4926 13.4485 13.391C13.4246 13.3679 13.4215 13.3254 13.4098 13.2914C13.4403 13.3019 13.4817 13.3047 13.5028 13.3269C13.7848 13.6051 14.066 13.8847 14.3449 14.1636C14.3393 14.1722 14.3327 14.1802 14.3254 14.1875ZM10.8578 10.7168L11.7309 11.5824C11.7274 11.5922 11.7231 11.6023 11.7203 11.6121C11.6828 11.5922 11.6371 11.5816 11.6098 11.5527C11.4207 11.3496 11.2348 11.1422 11.0481 10.9367C10.9821 10.864 10.918 10.7918 10.8528 10.7195C10.8544 10.7185 10.8561 10.7176 10.8578 10.7168ZM10.3492 11.4375C10.6606 11.4726 11.4977 11.8066 11.5442 11.9277C11.1293 11.7574 10.7395 11.5969 10.3492 11.4375ZM13.4848 11.5871L14.4211 10.716C14.4142 10.7077 14.4066 10.7 14.3985 10.6929C14.1067 11.0039 13.8399 11.3386 13.5313 11.634C13.5155 11.6186 13.5 11.603 13.4848 11.5871ZM13.7617 12.0922C13.8106 12.0715 13.8578 12.0422 13.909 12.034C13.9752 12.0236 14.0425 12.0224 14.109 12.0304C14.3008 12.0539 14.4703 11.9926 14.6422 11.9179C14.7559 11.8695 14.8848 11.8539 15.0067 11.8226C15.011 11.8398 15.0149 11.857 15.0199 11.8746C14.9582 11.884 14.8965 11.8902 14.8371 11.9066C14.7367 11.9351 14.6395 11.9707 14.5391 12.0011C14.4324 12.034 14.327 12.0765 14.2184 12.0922C14.0731 12.1144 13.9246 12.1144 13.7774 12.1242C13.7726 12.1133 13.7674 12.1026 13.7617 12.0922ZM13.202 11.3672C13.225 11.3187 13.2422 11.2652 13.2727 11.2234C13.3129 11.1695 13.361 11.1195 13.4125 11.0801C13.5614 10.9683 13.6289 10.8082 13.7 10.6449C13.7504 10.5289 13.8328 10.4261 13.9098 10.3254C13.9313 10.2957 13.9832 10.289 14.0227 10.2836C13.8836 10.3648 13.7781 10.4922 13.7403 10.6265C13.6762 10.8621 13.5551 11.0441 13.3848 11.2074C13.3305 11.2601 13.293 11.3293 13.2473 11.3898C13.2325 11.3817 13.2174 11.3742 13.202 11.3672ZM11.6453 10.139L12.1289 11.3054L12.1028 11.3297C12.0781 11.3097 12.0379 11.2976 12.0289 11.2726C11.8903 10.8992 11.7559 10.5242 11.6207 10.1488C11.6292 10.1463 11.6374 10.143 11.6453 10.139ZM11.4864 12.0183C11.4524 12.0183 11.4137 12.0297 11.3852 12.016C11.0461 11.8582 10.7082 11.6961 10.3813 11.509C10.7516 11.6621 11.1219 11.8148 11.493 11.9672C11.4906 11.9847 11.4879 12.0011 11.4864 12.0183ZM11.641 14.7445C11.6074 14.632 11.9903 13.5469 12.1203 13.4656C12.102 13.5238 12.0938 13.5617 12.0797 13.598C11.9469 13.9297 11.8129 14.2594 11.6821 14.591C11.661 14.6433 11.6516 14.7004 11.641 14.7445ZM14.9063 11.5117C14.5223 11.6883 14.1473 11.8867 13.7563 12.048C13.7477 12.0258 13.7375 12.0054 13.7278 11.984C14.116 11.8176 14.5024 11.6519 14.8903 11.4863L14.9063 11.5117ZM12.2305 11.1426C12.2547 10.8687 12.2586 10.6011 12.1172 10.3457C12.0645 10.2476 12.0645 10.1211 12.0332 9.97888C12.0785 10.0051 12.0903 10.0074 12.0903 10.0117C12.109 10.223 12.1551 10.4258 12.2727 10.6097C12.3031 10.6574 12.3016 10.7301 12.3031 10.7914C12.3067 10.939 12.3039 11.0871 12.3039 11.2344C12.2794 11.2038 12.2549 11.1732 12.2305 11.1426ZM13 13.6652C12.9758 13.9347 12.9645 14.2023 13.1102 14.4504C13.1735 14.557 13.1899 14.6816 13.1707 14.7859C13.0953 14.5746 12.9957 14.357 12.9422 14.1277C12.9012 13.9492 12.9168 13.7582 12.9059 13.5426L13.0012 13.6683C13.0024 13.6695 13 13.6652 13 13.6652ZM13.1977 13.5031L13.5817 14.5957C13.5727 14.598 13.5653 14.6015 13.5571 14.6039C13.4039 14.234 13.2512 13.8633 13.0973 13.4941C13.1059 13.4875 13.1145 13.4808 13.1231 13.475C13.1489 13.4855 13.1742 13.4957 13.1996 13.5074L13.1977 13.5031ZM14.8438 13.2929C14.4703 13.1398 14.0977 12.9851 13.7242 12.8304C13.727 12.8179 13.7301 12.8043 13.7324 12.7906C13.7707 12.7906 13.8141 12.7785 13.8461 12.7933C14.1817 12.9504 14.5168 13.1109 14.8524 13.2711L14.8438 13.2929ZM13.1055 11.3148L13.5949 10.0949C13.584 10.3062 13.2106 11.2804 13.1055 11.3148Z" fill="#FDD12E"/>
<path fill-rule="evenodd" clip-rule="evenodd" d="M13.2 13.5074C13.2106 13.4769 13.22 13.4457 13.2356 13.3968C13.395 13.5296 13.42 13.716 13.5145 13.8578C13.6063 13.9968 13.745 14.1074 13.8551 14.2363C13.6996 14.1238 13.5223 14.0441 13.4387 13.8457C13.386 13.7199 13.2801 13.6175 13.1981 13.505L13.2 13.5082M10.3676 13.2722C10.736 13.1101 11.0883 12.9109 11.4645 12.7652C11.4719 12.7859 11.4809 12.8058 11.4899 12.8246C11.1215 12.9824 10.7524 13.1414 10.384 13.2984C10.3782 13.2898 10.3727 13.28 10.3676 13.2722ZM13.8164 12.5546C13.8563 12.5546 13.8973 12.5464 13.9352 12.5566C13.9993 12.5722 14.0641 12.5918 14.1223 12.623C14.2977 12.7218 14.4821 12.73 14.6793 12.7226C14.8028 12.7168 14.9305 12.7644 15.0532 12.7972C15.086 12.8062 15.1102 12.8476 15.1328 12.8804C14.9411 12.7867 14.7496 12.7308 14.5348 12.7585C14.4542 12.7708 14.372 12.7667 14.293 12.7464C14.1325 12.698 13.9778 12.632 13.8207 12.5746C13.8188 12.5679 13.818 12.5613 13.8164 12.5546ZM14.2657 13.9449C14.011 13.698 13.7536 13.4503 13.4989 13.2031C13.5004 13.1968 13.5032 13.1925 13.5055 13.1855C13.536 13.2003 13.5746 13.207 13.5957 13.23C13.818 13.471 14.0368 13.7144 14.2571 13.9562C14.2606 13.953 14.2635 13.9491 14.2657 13.9449Z" fill="#FDD12E"/>
<path fill-rule="evenodd" clip-rule="evenodd" d="M14.8438 12.8063C14.4637 12.9719 14.1395 12.7735 13.7993 12.7395C13.7868 12.7387 13.7786 12.7043 13.7618 12.6719C13.9692 12.6399 14.1223 12.7727 14.2965 12.7996C14.4696 12.827 14.6489 12.8063 14.8438 12.8063ZM11.4414 12.1602C11.109 12.1289 10.8106 11.8801 10.4536 12.0129C10.6528 11.9371 10.8442 11.9008 11.0453 11.9895C11.1356 12.0293 11.2442 12.025 11.3422 12.0477C11.386 12.0582 11.4246 12.0848 11.4657 12.1047C11.4571 12.1231 11.4493 12.1418 11.4414 12.1602ZM11.5129 12.9883C11.5418 12.9996 11.5711 13.0121 11.6118 13.0285C11.484 13.1735 11.3129 13.2106 11.1743 13.2977C11.0407 13.3809 10.9379 13.5106 10.8153 13.6145C10.8993 13.4582 10.9903 13.3164 11.1672 13.2344C11.2938 13.175 11.3993 13.0696 11.5153 12.9848L11.5129 12.9883ZM11.3672 10.525C11.6567 10.7043 11.7911 11.0094 11.9809 11.2711C11.9989 11.2965 11.9973 11.3387 12.0051 11.3731C11.9746 11.3602 11.9301 11.3543 11.9153 11.3305C11.8573 11.2384 11.8068 11.1419 11.7641 11.0418C11.7176 10.9212 11.6373 10.8165 11.5328 10.7403C11.4602 10.6856 11.4043 10.6117 11.3403 10.5461C11.3488 10.5385 11.3578 10.5314 11.3672 10.525ZM12.3469 13.5602C12.3684 13.7551 12.2539 13.9012 12.2235 14.0668C12.1957 14.2262 12.2176 14.3961 12.2106 14.5598C12.1223 14.293 12.2078 13.6399 12.3469 13.5602ZM13.5989 13.0774C13.6934 13.1496 13.7989 13.2129 13.8786 13.2977C13.9965 13.4215 14.1266 13.5106 14.2965 13.541C14.3539 13.5516 14.4067 13.5895 14.4629 13.6145L14.4414 13.6614C14.2801 13.5875 14.1114 13.5262 13.961 13.436C13.8161 13.3492 13.6895 13.2324 13.5555 13.1301C13.5703 13.1114 13.584 13.0942 13.5989 13.0774ZM13.0676 14.6215C12.8102 14.3399 12.8371 13.9621 12.7633 13.6129C12.7618 13.6051 12.7832 13.5938 12.8215 13.5559C12.8422 13.6692 12.8735 13.7574 12.8719 13.8453C12.8661 14.0543 12.8856 14.25 13.0125 14.427C13.0528 14.4828 13.0536 14.5668 13.0676 14.6215Z" fill="#FDD12E"/>
<path fill-rule="evenodd" clip-rule="evenodd" d="M12.2032 14.8516C12.2004 14.8465 12.1918 14.8391 12.1934 14.8359C12.2688 14.6137 12.2508 14.3852 12.2633 14.1574C12.2731 13.9691 12.3727 13.7863 12.4524 13.5984C12.4551 13.6363 12.4664 13.6758 12.4598 13.7113C12.4507 13.7653 12.4336 13.8175 12.409 13.8664C12.3012 14.0633 12.2782 14.268 12.2981 14.491C12.3078 14.6113 12.259 14.7355 12.2371 14.8586C12.2262 14.8555 12.2145 14.8539 12.2032 14.8516ZM12.1602 10.1719C12.4012 10.4559 12.3961 10.8348 12.4645 11.1926C12.4672 11.2059 12.4559 11.2215 12.4489 11.2359C12.4344 11.232 12.4184 11.2285 12.4024 11.2238C12.3856 11.1363 12.3543 11.0488 12.3559 10.9605C12.3614 10.7523 12.3414 10.5566 12.2172 10.3773C12.1735 10.3156 12.1735 10.2246 12.1602 10.1719ZM10.7688 11.1996C11.0254 11.2012 11.236 11.3043 11.4098 11.4875C11.4551 11.5359 11.5321 11.5551 11.5883 11.5953C11.618 11.6168 11.6336 11.6559 11.6559 11.6879C11.6223 11.6828 11.5793 11.6879 11.5555 11.6707C11.4684 11.6047 11.3918 11.5242 11.3024 11.4633C11.1967 11.3943 11.087 11.3315 10.9739 11.2754C10.909 11.243 10.8371 11.2242 10.7688 11.1996ZM10.6368 12.8559C10.7243 12.8086 10.8047 12.7344 10.8969 12.7191C11.0762 12.6895 11.2614 12.6926 11.4653 12.6809C11.4411 12.7098 11.4274 12.741 11.4071 12.7469C11.3475 12.7661 11.2853 12.776 11.2227 12.7762C11.0215 12.7656 10.8243 12.7762 10.6352 12.8527L10.6368 12.8559ZM13.793 12.1992C13.8969 12.1812 14.002 12.1484 14.1067 12.1508C14.2965 12.1543 14.4696 12.1277 14.6297 12.0141C14.6899 11.973 14.7746 11.9664 14.8387 11.9484C14.5391 12.2051 14.1618 12.1875 13.8051 12.257C13.8004 12.2383 13.7969 12.2184 13.793 12.1992ZM13.3008 11.4258C13.3692 11.3348 13.4274 11.2316 13.509 11.1535C13.6348 11.0324 13.7293 10.9016 13.7582 10.725C13.7672 10.6668 13.8051 10.6137 13.8321 10.5504C13.8477 10.9621 13.5055 11.1586 13.3582 11.4672C13.3403 11.4527 13.32 11.4398 13.3008 11.4258Z" fill="#FDD12E"/>
<path fill-rule="evenodd" clip-rule="evenodd" d="M10.4012 12.8531C10.6844 12.5957 11.0652 12.6269 11.4176 12.548C11.4227 12.5667 11.4258 12.5843 11.4313 12.6031C11.3285 12.6222 11.225 12.6593 11.1238 12.6558C10.9254 12.65 10.7461 12.6832 10.5797 12.7992C10.5262 12.8359 10.4492 12.839 10.4012 12.8531ZM11.9238 13.3789C11.8621 13.4648 11.8121 13.5609 11.7363 13.6332C11.5996 13.764 11.4945 13.9062 11.4668 14.0984C11.4586 14.1488 11.4242 14.1957 11.3977 14.2546C11.382 13.8441 11.725 13.6492 11.8656 13.3406C11.8856 13.3531 11.9055 13.3667 11.9238 13.3789ZM10.9063 11.3066C11.0762 11.3429 11.2125 11.4289 11.3277 11.5605C11.4012 11.6437 11.4996 11.7062 11.5793 11.7996C11.5406 11.7902 11.4957 11.7875 11.4652 11.7652C11.4055 11.7218 11.3567 11.664 11.2988 11.6179C11.1871 11.5296 11.0711 11.4468 10.9582 11.3605C10.9395 11.3449 10.9238 11.3242 10.9082 11.305L10.9063 11.3066ZM14.3535 13.4914C14.1924 13.4779 14.0431 13.4017 13.9375 13.2792C13.8492 13.1832 13.7406 13.1066 13.6527 12.9941C13.6973 13.014 13.7465 13.0261 13.7844 13.0539C13.8371 13.0937 13.8914 13.1371 13.9285 13.1914C14.034 13.3445 14.2008 13.407 14.3504 13.4941L14.3535 13.4914ZM11.8731 11.4578C11.8395 11.4207 11.7984 11.3878 11.7762 11.3453C11.7363 11.2699 11.7152 11.1847 11.675 11.1093C11.6125 10.9917 11.5399 10.8789 11.4766 10.7714C11.7434 10.9054 11.7203 11.2355 11.9082 11.4296C11.8961 11.439 11.8848 11.4492 11.8731 11.4578ZM12.7434 11.2003C12.7688 11.1109 12.7902 11.0203 12.8188 10.932C12.8692 10.775 12.9246 10.6179 12.9695 10.4871C13.043 10.7363 12.8102 10.9515 12.8059 11.2175C12.7848 11.2109 12.7633 11.2062 12.7434 11.2003ZM11.0039 13.5105C11.1332 13.2769 11.4477 13.3 11.6246 13.1101L11.6477 13.1324C11.6313 13.1578 11.6195 13.1925 11.5957 13.207C11.5332 13.2476 11.4656 13.2781 11.3988 13.3117C11.2649 13.3796 11.1305 13.4464 11.0039 13.5105ZM10.6289 12.0878C10.7317 12.0796 10.8418 12.0472 10.9379 12.0691C11.0992 12.1062 11.2531 12.1785 11.4121 12.2558C11.3594 12.2507 11.3035 12.257 11.2551 12.2394C11.1555 12.2066 11.0625 12.15 10.9621 12.125C10.8535 12.098 10.7395 12.098 10.6289 12.0878ZM13.5621 11.6527C13.6192 11.614 13.6731 11.5687 13.7348 11.5386C13.8984 11.4562 14.0664 11.3808 14.2121 11.3132C14.0836 11.5289 13.7719 11.5074 13.5965 11.6988C13.5846 11.6837 13.5732 11.6684 13.5621 11.6527ZM13.7305 14.0191C13.484 13.8769 13.5063 13.5648 13.3192 13.3832L13.3488 13.3585C13.3801 13.3914 13.4223 13.4195 13.4426 13.4582C13.4836 13.5371 13.509 13.6253 13.5508 13.705C13.6059 13.8105 13.668 13.9117 13.7305 14.0191Z" fill="#FDD12E"/>
<path fill-rule="evenodd" clip-rule="evenodd" d="M10.9082 11.3054C10.7356 11.3296 10.4672 11.1148 10.502 10.9953C10.5996 11.1394 10.7332 11.2464 10.9055 11.3074L10.9082 11.3054ZM10.9532 13.6078C10.8036 13.7976 10.6059 13.8937 10.5036 13.832C10.6786 13.8156 10.7996 13.6957 10.9532 13.6078ZM14.35 13.4941C14.5227 13.514 14.6403 13.6136 14.7286 13.7539C14.7391 13.7687 14.7321 13.7957 14.7157 13.8156C14.7024 13.7851 14.6965 13.7429 14.6739 13.7261C14.57 13.6441 14.4614 13.5691 14.3547 13.4914L14.35 13.4941ZM10.6368 12.8531C10.5118 12.957 10.3653 12.9667 10.2149 12.9597L10.209 12.9304C10.352 12.9058 10.495 12.88 10.6383 12.8558L10.6368 12.8531ZM10.6289 12.0878C10.4641 12.1019 10.3032 12.0957 10.1664 11.9777C10.3203 12.0148 10.475 12.0519 10.6289 12.0878ZM13.902 14.1328L14.0621 14.3988C14.05 14.407 14.0375 14.4136 14.025 14.4222C13.9743 14.3314 13.923 14.2409 13.8711 14.1507C13.8821 14.1445 13.8918 14.1378 13.902 14.1328ZM11.2036 10.3777L11.3567 10.6574C11.3469 10.6625 11.336 10.6687 11.3254 10.6738C11.2735 10.5828 11.22 10.4921 11.1676 10.4C11.1793 10.3933 11.1911 10.3851 11.2036 10.3777Z" fill="#FDD12E"/>
<path fill-rule="evenodd" clip-rule="evenodd" d="M12.8332 12.5234C12.877 12.5374 12.9336 12.5402 12.959 12.5694C12.9832 12.5984 12.9903 12.6667 12.9723 12.696C12.9489 12.73 12.8914 12.7464 12.8473 12.7605C12.811 12.771 12.7711 12.7671 12.7328 12.7698C12.7321 12.7816 12.7321 12.7925 12.7321 12.803C12.7953 12.8116 12.8602 12.8159 12.9219 12.8331C12.9567 12.8437 13.0133 12.8851 13.011 12.8999C12.9996 12.9409 12.9649 12.978 12.9364 13.0136C12.9281 13.0222 12.9059 13.0202 12.891 13.0202C12.7094 13.021 12.5274 13.0202 12.3457 13.0218C12.2688 13.0218 12.2207 12.9777 12.2199 12.9116C12.2199 12.8335 12.2832 12.8312 12.3492 12.8335C12.3926 12.8355 12.4383 12.8097 12.4824 12.7964L12.475 12.7636C12.4387 12.7636 12.4004 12.7734 12.3684 12.7612C12.3254 12.7444 12.2762 12.7175 12.2547 12.6804C12.2391 12.6542 12.252 12.5902 12.277 12.5671C12.3047 12.5402 12.3594 12.539 12.4055 12.5261L12.3164 12.6706C12.3633 12.6784 12.4102 12.6855 12.4571 12.6921C12.5524 12.7495 12.6461 12.7812 12.7508 12.6847C12.7621 12.6749 12.7914 12.6862 12.8114 12.6831C12.8477 12.678 12.884 12.6691 12.9184 12.6624C12.8953 12.6328 12.8716 12.6036 12.8473 12.5749C12.8406 12.5675 12.8289 12.5636 12.8192 12.5585C12.8242 12.5472 12.8289 12.5347 12.8332 12.5234ZM12.4539 12.8788V12.9136H12.7774V12.8788H12.4539ZM11.9332 11.9542C12.0336 11.7847 12.3371 11.7886 12.4606 11.8882C12.4796 11.9022 12.4953 11.9202 12.5067 11.9409C12.5629 12.0374 12.5446 12.405 12.4731 12.5241V12.2816C12.3891 12.3058 12.3168 12.3417 12.2426 12.3441C12.1699 12.3464 12.0961 12.3171 12.0262 12.2843C12.1856 12.2929 12.3387 12.298 12.4672 12.1812C12.2774 12.2429 12.0934 12.2734 11.9274 12.1038C12.091 11.9316 12.2711 11.9593 12.4594 12.0374C12.4457 11.8757 12.2973 11.8527 11.9332 11.9542ZM12.3129 12.1011C12.2688 12.0691 12.2383 12.0308 12.2192 12.037C12.1906 12.0452 12.1692 12.0819 12.1453 12.1069C12.1699 12.1276 12.1942 12.1605 12.2192 12.1624C12.2434 12.164 12.2696 12.1319 12.3129 12.1011ZM13.3008 12.1034C13.1328 12.2714 12.952 12.2468 12.7621 12.1808C12.8903 12.2952 13.0426 12.2952 13.2301 12.2589C13.0594 12.3921 12.9176 12.3437 12.7621 12.2718V12.5077L12.736 12.5128C12.7254 12.4878 12.7082 12.462 12.7063 12.4366C12.6989 12.3155 12.6891 12.1929 12.6922 12.0718C12.6957 11.9214 12.7492 11.8655 12.8996 11.8308C13.0461 11.7972 13.1758 11.8202 13.3071 11.948C13.1844 11.9245 13.0879 11.8925 12.9918 11.8925C12.9012 11.8933 12.7852 11.8874 12.7516 12.0405C12.9535 11.962 13.1364 11.9292 13.3008 12.1034ZM12.9797 12.2038L13.0317 12.1761C13.0473 12.1499 13.0801 12.1202 13.0762 12.098C13.0699 12.0734 13.0336 12.0546 13.0102 12.0331C12.9871 12.0585 12.9504 12.0816 12.9453 12.1105C12.9406 12.139 12.9668 12.173 12.9797 12.2038ZM12.4289 13.228L12.5723 13.164C12.5739 13.1542 12.5739 13.1433 12.5739 13.1335C12.5047 13.1335 12.4352 13.1405 12.3664 13.1319C12.3126 13.1231 12.262 13.1008 12.2192 13.0671H13.0082C12.984 13.1343 12.9555 13.1468 12.8715 13.1362C12.8063 13.1296 12.7406 13.1355 12.6739 13.1355C12.6746 13.1441 12.6758 13.1542 12.6758 13.164C12.7145 13.1831 12.7535 13.203 12.8063 13.228H12.4281" fill="#7B4022"/>
<path fill-rule="evenodd" clip-rule="evenodd" d="M12.4539 12.8796H12.7774V12.9144H12.4539V12.8796ZM12.3129 12.1011C12.2695 12.1316 12.243 12.1636 12.2192 12.162C12.1942 12.1601 12.1699 12.1273 12.1453 12.1066C12.1695 12.082 12.1906 12.0448 12.2192 12.0366C12.2383 12.0312 12.2688 12.0691 12.3129 12.1011ZM12.9805 12.2031C12.9676 12.1722 12.941 12.1382 12.9461 12.1097C12.9512 12.0808 12.9879 12.0577 13.0109 12.0323C13.0344 12.0538 13.0707 12.0726 13.077 12.0972C13.0809 12.1198 13.0481 12.1491 13.0324 12.1753C13.015 12.1844 12.9977 12.1937 12.9805 12.2031Z" fill="#FDD12E"/>
</svg>
