<svg width="48" height="26" viewBox="0 0 48 26" fill="none" xmlns="http://www.w3.org/2000/svg">
<path fill-rule="evenodd" clip-rule="evenodd" d="M0.542314 0.545465C0.713785 0.37256 0.917487 0.235378 1.14175 0.141778C1.36601 0.0481783 1.60643 0 1.84924 0C2.09204 0 2.33246 0.0481783 2.55672 0.141778C2.78099 0.235378 2.98469 0.37256 3.15616 0.545465L24.0005 21.5147L44.8448 0.545465C45.0164 0.37284 45.2202 0.235905 45.4444 0.142481C45.6687 0.0490571 45.909 0.000972091 46.1517 0.000972091C46.3945 0.000972091 46.6348 0.0490571 46.859 0.142481C47.0833 0.235905 47.287 0.37284 47.4587 0.545465C47.6303 0.718091 47.7664 0.923026 47.8593 1.14857C47.9522 1.37412 48 1.61586 48 1.85999C48 2.10412 47.9522 2.34586 47.8593 2.5714C47.7664 2.79695 47.6303 3.00188 47.4587 3.17451L25.3074 25.4545C25.1359 25.6274 24.9322 25.7646 24.708 25.8582C24.4837 25.9518 24.2433 26 24.0005 26C23.7577 26 23.5173 25.9518 23.293 25.8582C23.0687 25.7646 22.865 25.6274 22.6936 25.4545L0.542314 3.17451C0.370408 3.00204 0.23402 2.79715 0.140961 2.57159C0.0479015 2.34602 0 2.1042 0 1.85999C0 1.61577 0.0479015 1.37395 0.140961 1.14839C0.23402 0.922819 0.370408 0.717934 0.542314 0.545465Z" fill="#F5F5F5"/>
</svg>
