<svg width="20" height="20" viewBox="0 0 20 20" fill="none" xmlns="http://www.w3.org/2000/svg">
<path d="M0.625 12.375C0.79076 12.375 0.949732 12.4408 1.06694 12.5581C1.18415 12.6753 1.25 12.8342 1.25 13V16.125C1.25 16.4565 1.3817 16.7745 1.61612 17.0089C1.85054 17.2433 2.16848 17.375 2.5 17.375H17.5C17.8315 17.375 18.1495 17.2433 18.3839 17.0089C18.6183 16.7745 18.75 16.4565 18.75 16.125V13C18.75 12.8342 18.8158 12.6753 18.9331 12.5581C19.0503 12.4408 19.2092 12.375 19.375 12.375C19.5408 12.375 19.6997 12.4408 19.8169 12.5581C19.9342 12.6753 20 12.8342 20 13V16.125C20 16.788 19.7366 17.4239 19.2678 17.8928C18.7989 18.3616 18.163 18.625 17.5 18.625H2.5C1.83696 18.625 1.20107 18.3616 0.732233 17.8928C0.263392 17.4239 0 16.788 0 16.125V13C0 12.8342 0.065848 12.6753 0.183058 12.5581C0.300269 12.4408 0.45924 12.375 0.625 12.375Z" fill="#1D1D1D"/>
<path d="M9.5575 14.8175C9.61555 14.8757 9.68452 14.9219 9.76045 14.9534C9.83639 14.9849 9.91779 15.0011 10 15.0011C10.0822 15.0011 10.1636 14.9849 10.2395 14.9534C10.3155 14.9219 10.3844 14.8757 10.4425 14.8175L14.1925 11.0675C14.3099 10.9501 14.3758 10.791 14.3758 10.625C14.3758 10.459 14.3099 10.2999 14.1925 10.1825C14.0751 10.0651 13.916 9.99921 13.75 9.99921C13.584 9.99921 13.4249 10.0651 13.3075 10.1825L10.625 12.8663V1.875C10.625 1.70924 10.5591 1.55027 10.4419 1.43306C10.3247 1.31585 10.1658 1.25 10 1.25C9.83424 1.25 9.67526 1.31585 9.55805 1.43306C9.44084 1.55027 9.375 1.70924 9.375 1.875V12.8663L6.6925 10.1825C6.57514 10.0651 6.41597 9.99921 6.25 9.99921C6.08403 9.99921 5.92485 10.0651 5.8075 10.1825C5.69014 10.2999 5.62421 10.459 5.62421 10.625C5.62421 10.791 5.69014 10.9501 5.8075 11.0675L9.5575 14.8175Z" fill="#1D1D1D"/>
</svg>
