<svg width="26" height="48" viewBox="0 0 26 48" fill="none" xmlns="http://www.w3.org/2000/svg">
<path fill-rule="evenodd" clip-rule="evenodd" d="M0.545465 47.4577C0.37256 47.2862 0.235378 47.0825 0.141778 46.8582C0.0481783 46.634 0 46.3936 0 46.1508C0 45.908 0.0481783 45.6675 0.141778 45.4433C0.235378 45.219 0.37256 45.0153 0.545465 44.8438L21.5147 23.9995L0.545465 3.15519C0.37284 2.98356 0.235905 2.77981 0.142481 2.55557C0.0490571 2.33133 0.000972091 2.09098 0.000972091 1.84827C0.000972091 1.60555 0.0490571 1.36521 0.142481 1.14096C0.235905 0.916722 0.37284 0.71297 0.545465 0.541343C0.718091 0.369715 0.923026 0.233572 1.14857 0.140688C1.37412 0.0478038 1.61586 -1.48555e-06 1.85999 -1.48555e-06C2.10412 -1.48555e-06 2.34586 0.0478038 2.5714 0.140688C2.79695 0.233572 3.00188 0.369715 3.17451 0.541343L25.4545 22.6926C25.6274 22.8641 25.7646 23.0678 25.8582 23.292C25.9518 23.5163 26 23.7567 26 23.9995C26 24.2423 25.9518 24.4827 25.8582 24.707C25.7646 24.9313 25.6274 25.135 25.4545 25.3064L3.17451 47.4577C3.00204 47.6296 2.79715 47.766 2.57159 47.859C2.34602 47.9521 2.1042 48 1.85999 48C1.61577 48 1.37395 47.9521 1.14839 47.859C0.922819 47.766 0.717934 47.6296 0.545465 47.4577Z" fill="#F5F5F5"/>
</svg>
