<svg width="26" height="48" viewBox="0 0 26 48" fill="none" xmlns="http://www.w3.org/2000/svg">
<path fill-rule="evenodd" clip-rule="evenodd" d="M25.4545 0.542314C25.6274 0.713785 25.7646 0.917487 25.8582 1.14175C25.9518 1.36601 26 1.60643 26 1.84924C26 2.09204 25.9518 2.33246 25.8582 2.55672C25.7646 2.78099 25.6274 2.98469 25.4545 3.15616L4.48532 24.0005L25.4545 44.8448C25.6272 45.0164 25.7641 45.2202 25.8575 45.4444C25.9509 45.6687 25.999 45.909 25.999 46.1517C25.999 46.3945 25.9509 46.6348 25.8575 46.859C25.7641 47.0833 25.6272 47.287 25.4545 47.4587C25.2819 47.6303 25.077 47.7664 24.8514 47.8593C24.6259 47.9522 24.3841 48 24.14 48C23.8959 48 23.6541 47.9522 23.4286 47.8593C23.2031 47.7664 22.9981 47.6303 22.8255 47.4587L0.545465 25.3074C0.37256 25.1359 0.23538 24.9322 0.14178 24.708C0.04818 24.4837 -4.27003e-08 24.2433 -4.27003e-08 24.0005C-4.27003e-08 23.7577 0.04818 23.5173 0.14178 23.293C0.23538 23.0687 0.37256 22.865 0.545465 22.6936L22.8255 0.542314C22.998 0.370408 23.2028 0.23402 23.4284 0.140961C23.654 0.0479015 23.8958 0 24.14 0C24.3842 0 24.626 0.0479015 24.8516 0.140961C25.0772 0.23402 25.2821 0.370408 25.4545 0.542314Z" fill="#F5F5F5"/>
</svg>
