<svg width="25" height="25" viewBox="0 0 25 25" fill="none" xmlns="http://www.w3.org/2000/svg">
<g clip-path="url(#clip0_480_4)">
<path d="M9.375 0.434414C9.52752 0.619746 9.62096 0.846558 9.64324 1.08554C9.66553 1.32453 9.61563 1.5647 9.5 1.77504C8.59665 3.43359 8.1249 5.29269 8.12813 7.18129C8.12813 13.4641 13.25 18.5516 19.5625 18.5516C20.3859 18.5516 21.1875 18.4657 21.9578 18.3016C22.1939 18.2505 22.4399 18.27 22.665 18.3578C22.8901 18.4456 23.0843 18.5978 23.2234 18.7954C23.3703 19.0007 23.4452 19.2489 23.4364 19.5012C23.4276 19.7536 23.3357 19.996 23.175 20.1907C21.9495 21.696 20.4035 22.9089 18.6497 23.741C16.896 24.573 14.9786 25.0031 13.0375 25C5.83437 25 0 19.1969 0 12.0469C0 6.66566 3.30313 2.05004 8.00625 0.0937892C8.24053 -0.00522357 8.50061 -0.0255455 8.74742 0.0358761C8.99423 0.0972977 9.21445 0.237146 9.375 0.434414ZM7.59062 2.04848C5.78219 3.01852 4.27037 4.46042 3.21583 6.22092C2.16129 7.98142 1.60344 9.99474 1.60156 12.0469C1.60156 18.3282 6.725 23.4157 13.0375 23.4157C14.5491 23.4183 16.0463 23.1211 17.4423 22.5412C18.8383 21.9614 20.1054 21.1104 21.1703 20.0375C20.6437 20.1032 20.1078 20.136 19.5625 20.136C12.3594 20.136 6.52656 14.3329 6.52656 7.18285C6.52656 5.35941 6.90469 3.62348 7.59062 2.04848Z" fill="#F5F5F5"/>
</g>
<defs>
<clipPath id="clip0_480_4">
<rect width="25" height="25" fill="white"/>
</clipPath>
</defs>
</svg>
